<?xml version="1.0" encoding="utf-8"?>
<!-- Generator: Adobe Illustrator 26.2.1, SVG Export Plug-In . SVG Version: 6.00 Build 0)  -->
<svg version="1.1" id="Layer_1" xmlns="http://www.w3.org/2000/svg" xmlns:xlink="http://www.w3.org/1999/xlink" x="0px" y="0px"
	 viewBox="0 0 96 95.9" style="enable-background:new 0 0 96 95.9;" xml:space="preserve">
<style type="text/css">
	.st0{fill:#FFFFFF;}
</style>
<path class="st0" d="M0,48C0,21.5,21.5,0,48,0s48,21.5,48,48c0,10.7-3.4,20.7-9.9,29.1L62,53c0.6-1.6,0.9-3.4,0.9-5.1
	c0-8.2-6.7-15-15-15c-8.2,0-15,6.7-15,15c0,1.7,0.3,3.4,0.9,5.1L9.7,77.1C3.4,68.7,0,58.7,0,48z"/>
<path class="st0" d="M39.2,59.3L48,45.6l8.8,13.7l23.8,23.8C71.7,91.4,60.1,95.9,48,95.9c-12.2,0-23.7-4.6-32.6-12.8L39.2,59.3z"/>
</svg>
